<svg height="511pt" viewBox="-25 1 511 511.999" width="511pt" xmlns="http://www.w3.org/2000/svg"><path d="m434.730469 321.148438c7.183593-21.777344 10.816406-44.46875 10.816406-67.601563 0-21.664063-3.195313-42.960937-9.507813-63.4375 14.582032-8.234375 24.460938-23.886719 24.460938-41.808594 0-26.457031-21.507812-47.984375-47.941406-47.984375-8.941406 0-17.3125 2.46875-24.484375 6.75-29.425781-31.710937-67.886719-53.929687-109.84375-63.457031-2.214844-24.414063-22.769531-43.609375-47.730469-43.609375-24.957031 0-45.507812 19.183594-47.730469 43.589844-41.96875 9.550781-80.429687 31.777344-109.84375 63.476562-7.171875-4.28125-15.542969-6.75-24.484375-6.75-26.433594 0-47.941406 21.527344-47.941406 47.984375 0 17.921875 9.875 33.574219 24.460938 41.808594-6.316407 20.476563-9.511719 41.773437-9.511719 63.4375 0 23.148437 3.640625 45.839844 10.835937 67.59375-15.308594 8.019531-25.785156 24.070313-25.785156 42.53125 0 26.457031 21.503906 47.984375 47.941406 47.984375 10.160156 0 19.589844-3.191406 27.351563-8.613281 28.949219 30.003906 66.277343 51.125 106.78125 60.390625-.003907.195312-.015625.386718-.015625.582031 0 26.457031 21.503906 47.984375 47.941406 47.984375 26.433594 0 47.9375-21.527344 47.9375-47.984375 0-.195313-.011719-.386719-.011719-.582031 40.5-9.265625 77.828125-30.386719 106.777344-60.390625 7.765625 5.421875 17.191406 8.613281 27.355469 8.613281 26.433594 0 47.9375-21.527344 47.9375-47.984375.003906-18.457031-10.464844-34.5-25.765625-42.523437zm-9.179688-67.601563c0 21.3125-3.410156 42.207031-10.121093 62.234375-.953126-.054688-1.90625-.09375-2.871094-.09375-5.160156 0-10.125.828125-14.785156 2.34375l-35.773438-62.03125 35.789062-62.058594c4.65625 1.515625 9.617188 2.34375 14.769532 2.34375 1.480468 0 2.941406-.078125 4.386718-.210937 5.710938 18.542969 8.605469 37.835937 8.605469 57.472656zm-59.878906 100.125h-60l44.785156-77.652344 30.011719 52.039063c-7.363281 6.652344-12.65625 15.554687-14.796875 25.613281zm-95.277344 20h.652344l-25.777344 44.699219c-4.65625-1.511719-9.617187-2.339844-14.769531-2.339844s-10.113281.828125-14.769531 2.339844l-25.78125-44.699219h.65625c5.523437 0 10-4.476563 10-10s-4.476563-10-10-10h-12.191407l-56.324218-97.671875 56.34375-97.699219h104.132812l56.34375 97.699219-56.328125 97.671875h-12.1875c-5.523437 0-10 4.476563-10 10s4.476563 10 10 10zm-175.066406-20c-2.140625-10.058594-7.433594-18.960937-14.796875-25.613281l30.011719-52.039063 44.785156 77.652344zm0-195.371094h60.015625l-44.800781 77.683594-30.023438-52.058594c7.371094-6.65625 12.667969-15.5625 14.808594-25.625zm135.171875-62.332031c5.152344 0 10.113281-.828125 14.769531-2.339844l25.761719 44.671875h-81.0625l25.761719-44.671875c4.65625 1.511719 9.617187 2.339844 14.769531 2.339844zm135.171875 62.332031c2.140625 10.0625 7.4375 18.96875 14.804687 25.625l-30.019531 52.058594-44.800781-77.683594zm74.824219-10c0 15.429688-12.53125 27.980469-27.9375 27.980469s-27.941406-12.550781-27.941406-27.980469c0-15.429687 12.535156-27.980469 27.941406-27.980469s27.9375 12.550782 27.9375 27.980469zm-67.089844-27.640625c-3.683594 5.214844-6.363281 11.1875-7.734375 17.640625h-71.550781l-31.542969-54.691406c5.96875-5.390625 10.574219-12.261719 13.246094-20.023437 37.25 8.882812 71.363281 28.824218 97.582031 57.074218zm-142.90625-100.660156c15.40625 0 27.941406 12.554688 27.941406 27.984375s-12.535156 27.980469-27.941406 27.980469c-14.375 0-26.246094-10.929688-27.769531-24.925782-.011719-.132812-.027344-.265624-.042969-.398437-.082031-.875-.128906-1.761719-.128906-2.65625 0-15.429687 12.535156-27.984375 27.941406-27.984375zm-45.332031 43.570312c2.675781 7.769532 7.28125 14.644532 13.25 20.039063l-31.539063 54.691406h-71.550781c-1.375-6.453125-4.050781-12.425781-7.734375-17.640625 26.207031-28.238281 60.316406-48.183594 97.574219-57.089844zm-136.726563 56.746094c15.40625 0 27.941406 12.554688 27.941406 27.984375 0 15.425781-12.535156 27.980469-27.941406 27.980469s-27.941406-12.554688-27.941406-27.980469c0-15.429687 12.535156-27.984375 27.941406-27.984375zm-12.992187 133.230469c0-19.636719 2.894531-38.929687 8.601562-57.472656 1.449219.132812 2.910157.210937 4.390625.210937 5.152344 0 10.113282-.828125 14.769532-2.339844l35.789062 62.054688-35.773438 62.03125c-4.660156-1.515625-9.628906-2.34375-14.785156-2.34375-.957031 0-1.90625.035156-2.851562.09375-6.726563-20.007812-10.140625-40.902344-10.140625-62.234375zm-14.949219 110.125c0-12.957031 8.839844-23.878906 20.792969-27.050781.148437-.035156.296875-.070313.445312-.113282 2.148438-.53125 4.390625-.820312 6.703125-.820312 15.40625 0 27.9375 12.554688 27.9375 27.984375 0 15.425781-12.53125 27.980469-27.9375 27.980469s-27.941406-12.550782-27.941406-27.980469zm68.988281 24.761719c2.71875-4.492188 4.710938-9.46875 5.839844-14.761719h71.535156l31.554688 54.71875c-4.789063 4.328125-8.695313 9.609375-11.4375 15.535156-37.035157-8.484375-71.148438-27.898437-97.492188-55.492187zm141.011719 103.566406c-15.40625 0-27.941406-12.554688-27.941406-27.984375s12.535156-27.980469 27.941406-27.980469 27.941406 12.550782 27.941406 27.980469-12.535156 27.984375-27.941406 27.984375zm43.519531-48.074219c-2.742187-5.925781-6.648437-11.207031-11.441406-15.535156l31.558594-54.71875h71.535156c1.125 5.292969 3.121094 10.269531 5.839844 14.761719-26.34375 27.59375-60.457031 47.007812-97.492188 55.492187zm138.539063-52.273437c-15.40625 0-27.941406-12.550782-27.941406-27.980469s12.535156-27.980469 27.941406-27.980469c2.34375 0 4.625.292969 6.800781.839844.078125.023438.152344.039062.226563.058594 12.015624 3.128906 20.914062 14.082031 20.914062 27.082031-.003906 15.429687-12.535156 27.980469-27.941406 27.980469zm0 0"/><path d="m230.699219 353.671875h-.199219c-5.523438 0-10 4.476563-10 10s4.476562 10 10 10h.199219c5.519531 0 10-4.476563 10-10s-4.480469-10-10-10zm0 0"/></svg>