<svg xmlns="http://www.w3.org/2000/svg" height="512pt" version="1.1" viewBox="0 0 512 512" width="512pt">
<g id="surface1">
<path d="M 312.140625 245.699219 C 324.089844 232.160156 331 214.511719 331 196 C 331 154.644531 297.355469 121 256 121 C 214.644531 121 181 154.644531 181 196 C 181 214.511719 187.910156 232.160156 199.863281 245.699219 C 171.355469 256.332031 151 283.832031 151 316 L 151 376 C 151 384.285156 157.714844 391 166 391 L 346 391 C 354.285156 391 361 384.285156 361 376 L 361 316 C 361 283.832031 340.644531 256.332031 312.140625 245.699219 Z M 331 361 L 181 361 L 181 316 C 181 291.1875 201.1875 271 226 271 C 234.285156 271 241 264.285156 241 256 L 241 247.972656 C 241 242.617188 238.144531 237.671875 233.511719 234.988281 C 219.625 226.957031 211 212.015625 211 196 C 211 171.1875 231.1875 151 256 151 C 280.8125 151 301 171.1875 301 196 C 301 212.015625 292.375 226.957031 278.488281 234.988281 C 273.855469 237.671875 271 242.617188 271 247.972656 L 271 256 C 271 264.285156 277.714844 271 286 271 C 310.8125 271 331 291.1875 331 316 Z M 331 361 " style=" stroke:none;fill-rule:nonzero;fill:rgb(0%,0%,0%);fill-opacity:1;" />
<path d="M 497 241 L 480.496094 241 C 473.15625 128.730469 383.453125 38.855469 271 31.503906 L 271 15 C 271 6.714844 264.285156 0 256 0 C 247.714844 0 241 6.714844 241 15 L 241 31.503906 C 128.730469 38.84375 38.855469 128.546875 31.503906 241 L 15 241 C 6.714844 241 0 247.714844 0 256 C 0 264.285156 6.714844 271 15 271 L 31.503906 271 C 38.84375 383.269531 128.546875 473.144531 241 480.496094 L 241 497 C 241 505.285156 247.714844 512 256 512 C 264.285156 512 271 505.285156 271 497 L 271 480.496094 C 383.269531 473.15625 473.144531 383.453125 480.496094 271 L 497 271 C 505.285156 271 512 264.285156 512 256 C 512 247.714844 505.285156 241 497 241 Z M 271 450.429688 L 271 436 C 271 427.714844 264.285156 421 256 421 C 247.714844 421 241 427.714844 241 436 L 241 450.429688 C 145.410156 443.121094 68.878906 366.589844 61.570312 271 L 76 271 C 84.285156 271 91 264.285156 91 256 C 91 247.714844 84.285156 241 76 241 L 61.570312 241 C 68.878906 145.410156 145.410156 68.878906 241 61.570312 L 241 76 C 241 84.285156 247.714844 91 256 91 C 264.285156 91 271 84.285156 271 76 L 271 61.570312 C 366.589844 68.878906 443.121094 145.410156 450.429688 241 L 436 241 C 427.714844 241 421 247.714844 421 256 C 421 264.285156 427.714844 270.988281 436 270.988281 L 450.429688 270.988281 C 443.121094 366.582031 366.589844 443.121094 271 450.429688 Z M 271 450.429688 " style=" stroke:none;fill-rule:nonzero;fill:rgb(0%,0%,0%);fill-opacity:1;" />
</g>
</svg>